<svg aria-hidden="true" style="position: absolute; width: 0; height: 0; overflow: hidden;" version="1.1" xmlns="http://www.w3.org/2000/svg" xmlns:xlink="http://www.w3.org/1999/xlink">
<defs>

<symbol id="icon-wallet" width="40" height="40" viewBox="0 0 40 40" fill="none" xmlns="http://www.w3.org/2000/svg">
<path d="M20.2871 0.751248L20.288 0.750807C21.4396 0.162815 22.8509 0.643838 23.4352 1.84632C23.4352 1.84644 23.4353 1.84657 23.4353 1.84669L24.2484 3.53181L4.62543 9.02382H4.00754L20.2871 0.751248Z" fill="#24CCA7" stroke="black"/>
<path d="M33.9176 9.02386H27.5645H14.9417L25.7983 5.78253L25.7985 5.78245L30.427 4.398L33.9176 9.02386ZM33.9176 9.02386L33.2066 6.17128L33.2062 6.16975C32.9232 5.0188 31.9872 4.30957 31.0166 4.30957C30.823 4.30957 30.627 4.33834 30.4273 4.39791L33.9176 9.02386Z" fill="#24CCA7" stroke="black"/>
<path d="M37.1912 12.9441V12.9423C37.1946 11.9939 36.4174 11.2158 35.4497 11.2158H34.9377H34.2414H33.5452H28.2313H8.70522H6.14486H3.98877H3.58899H2.25042C1.69739 11.2158 1.20562 11.4683 0.884054 11.8666C0.735584 12.0527 0.625495 12.2628 0.56388 12.4895C0.523196 12.644 0.5 12.796 0.5 12.9441V13.2115V15.7517V37.7714C0.5 38.7215 1.27859 39.4997 2.24593 39.4997H35.4452C36.4126 39.4997 37.1912 38.7215 37.1912 37.7714V32.0545H24.3638C21.9847 32.0545 20.0458 30.1365 20.0458 27.7665V25.7254V25.0346V24.3439V22.8108C20.0458 21.6489 20.5146 20.5937 21.2709 19.8229L37.1912 12.9441ZM37.1912 12.9441V18.5272M37.1912 12.9441V18.5272M37.1912 18.5272H36.5188H35.8226H24.3593C24.1878 18.5272 24.0156 18.5372 23.8472 18.5574C22.8404 18.6737 21.9412 19.138 21.2715 19.8223L37.1912 18.5272Z" fill="#4A56E2" stroke="black"/>
<path d="M38.9308 21.5273L38.9328 21.5291C39.2817 21.8441 39.5001 22.2995 39.5001 22.8025V27.7626C39.5001 28.2656 39.2817 28.721 38.9328 29.0359L38.9308 29.0378C38.7551 29.1982 38.5506 29.3211 38.3248 29.3958C38.1407 29.4567 37.9511 29.4909 37.7541 29.4909H37.6957H24.3639C23.3966 29.4909 22.618 28.7127 22.618 27.7626V25.2937V24.6029V23.9122V22.8025C22.618 21.8523 23.3966 21.0742 24.3639 21.0742H34.4436H36.9546H37.6508H37.6957H37.7541C37.95 21.0742 38.1385 21.108 38.3216 21.1682C38.5549 21.2493 38.7592 21.3706 38.9308 21.5273ZM27.9304 27.3401C28.8227 27.3401 29.5534 26.6208 29.5534 25.726V24.9862C29.5534 24.0913 28.8227 23.372 27.9304 23.372H27.3735H27.1848C26.8017 23.372 26.4595 23.51 26.1907 23.7144C25.8034 24.0078 25.5618 24.4705 25.5618 24.9862V25.726C25.5618 26.6208 26.2925 27.3401 27.1848 27.3401H27.9304Z" fill="#4A56E2" stroke="black"/>
</symbol>

<symbol id="icon-exit" width="18" height="18" viewBox="0 0 18 18" fill="none" xmlns="http://www.w3.org/2000/svg">
<path d="M11.2788 13.0708H12.6844V15.8818C12.6844 17.0443 11.7386 17.99 10.5761 17.99H2.10814C0.945786 17.99 0 17.0443 0 15.8818V2.10814C0 0.945786 0.945786 0 2.10814 0H10.5761C11.7386 0 12.6844 0.945786 12.6844 2.10814V4.91913H11.2788V2.10814C11.2788 1.72073 10.9637 1.40543 10.5761 1.40543H2.10814C1.72073 1.40543 1.40543 1.72073 1.40543 2.10814V15.8818C1.40543 16.2692 1.72073 16.5845 2.10814 16.5845H10.5761C10.9637 16.5845 11.2788 16.2692 11.2788 15.8818V13.0708ZM14.6872 5.68213L13.6934 6.67598L15.3096 8.29234H6.21922V9.69777H15.3096L13.6934 11.314L14.6872 12.3078L18 8.99506L14.6872 5.68213Z" fill="#BDBDBD"/>
</symbol>

<symbol id="icon-email" width="21" height="16" viewBox="0 0 21 16" fill="none" xmlns="http://www.w3.org/2000/svg">
<path d="M18.5 0H2.5C1.4 0 0.51 0.9 0.51 2L0.5 14C0.5 15.1 1.4 16 2.5 16H18.5C19.6 16 20.5 15.1 20.5 14V2C20.5 0.9 19.6 0 18.5 0ZM18.5 4L10.5 9L2.5 4V2L10.5 7L18.5 2V4Z" fill="#E0E0E0"/>
</symbol>

<symbol id="icon-password" width="17" height="21" viewBox="0 0 17 21" fill="none" xmlns="http://www.w3.org/2000/svg">
<path d="M14.5 7H13.5V5C13.5 2.24 11.26 0 8.5 0C5.74 0 3.5 2.24 3.5 5V7H2.5C1.4 7 0.5 7.9 0.5 9V19C0.5 20.1 1.4 21 2.5 21H14.5C15.6 21 16.5 20.1 16.5 19V9C16.5 7.9 15.6 7 14.5 7ZM8.5 16C7.4 16 6.5 15.1 6.5 14C6.5 12.9 7.4 12 8.5 12C9.6 12 10.5 12.9 10.5 14C10.5 15.1 9.6 16 8.5 16ZM11.6 7H5.4V5C5.4 3.29 6.79 1.9 8.5 1.9C10.21 1.9 11.6 3.29 11.6 5V7Z" fill="#E0E0E0"/>
</symbol>

<symbol id="icon-home" width="18" height="18" viewBox="0 0 18 18" fill="none" xmlns="http://www.w3.org/2000/svg">
<mask id="path-1-inside-1_5_121" fill="white">
<path fill-rule="evenodd" clip-rule="evenodd" d="M2 0C0.895431 0 0 0.89543 0 2V16C0 17.1046 0.89543 18 2 18H16C17.1046 18 18 17.1046 18 16V2C18 0.895431 17.1046 0 16 0H2ZM7.8 10.1176V14H4.8V8.82353H3L9 3L15 8.82353H13.2V14H10.2V10.1176H7.8Z"/>
</mask>
<path fill-rule="evenodd" clip-rule="evenodd" d="M2 0C0.895431 0 0 0.89543 0 2V16C0 17.1046 0.89543 18 2 18H16C17.1046 18 18 17.1046 18 16V2C18 0.895431 17.1046 0 16 0H2ZM7.8 10.1176V14H4.8V8.82353H3L9 3L15 8.82353H13.2V14H10.2V10.1176H7.8Z" fill="#4A56E2"/>
<path d="M7.8 14V15H8.8V14H7.8ZM7.8 10.1176V9.11765H6.8V10.1176H7.8ZM4.8 14H3.8V15H4.8V14ZM4.8 8.82353H5.8V7.82353H4.8V8.82353ZM3 8.82353L2.30352 8.10595L0.533896 9.82353H3V8.82353ZM9 3L9.69648 2.28242L9 1.60643L8.30352 2.28242L9 3ZM15 8.82353V9.82353H17.4661L15.6965 8.10595L15 8.82353ZM13.2 8.82353V7.82353H12.2V8.82353H13.2ZM13.2 14V15H14.2V14H13.2ZM10.2 14H9.2V15H10.2V14ZM10.2 10.1176H11.2V9.11765H10.2V10.1176ZM1 2C1 1.44772 1.44772 1 2 1V-1C0.343146 -1 -1 0.343146 -1 2H1ZM1 16V2H-1V16H1ZM2 17C1.44771 17 1 16.5523 1 16H-1C-1 17.6569 0.343146 19 2 19V17ZM16 17H2V19H16V17ZM17 16C17 16.5523 16.5523 17 16 17V19C17.6569 19 19 17.6569 19 16H17ZM17 2V16H19V2H17ZM16 1C16.5523 1 17 1.44772 17 2H19C19 0.343146 17.6569 -1 16 -1V1ZM2 1H16V-1H2V1ZM8.8 14V10.1176H6.8V14H8.8ZM4.8 15H7.8V13H4.8V15ZM3.8 8.82353V14H5.8V8.82353H3.8ZM3 9.82353H4.8V7.82353H3V9.82353ZM8.30352 2.28242L2.30352 8.10595L3.69648 9.54111L9.69648 3.71758L8.30352 2.28242ZM15.6965 8.10595L9.69648 2.28242L8.30352 3.71758L14.3035 9.54111L15.6965 8.10595ZM13.2 9.82353H15V7.82353H13.2V9.82353ZM14.2 14V8.82353H12.2V14H14.2ZM10.2 15H13.2V13H10.2V15ZM9.2 10.1176V14H11.2V10.1176H9.2ZM7.8 11.1176H10.2V9.11765H7.8V11.1176Z" fill="black" mask="url(#path-1-inside-1_5_121)"/>
<path d="M7.8 14V15H8.8V14H7.8ZM7.8 10.1176V9.11765H6.8V10.1176H7.8ZM4.8 14H3.8V15H4.8V14ZM4.8 8.82353H5.8V7.82353H4.8V8.82353ZM3 8.82353L2.30352 8.10595L0.533896 9.82353H3V8.82353ZM9 3L9.69648 2.28242L9 1.60643L8.30352 2.28242L9 3ZM15 8.82353V9.82353H17.4661L15.6965 8.10595L15 8.82353ZM13.2 8.82353V7.82353H12.2V8.82353H13.2ZM13.2 14V15H14.2V14H13.2ZM10.2 14H9.2V15H10.2V14ZM10.2 10.1176H11.2V9.11765H10.2V10.1176ZM1 2C1 1.44772 1.44772 1 2 1V-1C0.343146 -1 -1 0.343146 -1 2H1ZM1 16V2H-1V16H1ZM2 17C1.44771 17 1 16.5523 1 16H-1C-1 17.6569 0.343146 19 2 19V17ZM16 17H2V19H16V17ZM17 16C17 16.5523 16.5523 17 16 17V19C17.6569 19 19 17.6569 19 16H17ZM17 2V16H19V2H17ZM16 1C16.5523 1 17 1.44772 17 2H19C19 0.343146 17.6569 -1 16 -1V1ZM2 1H16V-1H2V1ZM8.8 14V10.1176H6.8V14H8.8ZM4.8 15H7.8V13H4.8V15ZM3.8 8.82353V14H5.8V8.82353H3.8ZM3 9.82353H4.8V7.82353H3V9.82353ZM8.30352 2.28242L2.30352 8.10595L3.69648 9.54111L9.69648 3.71758L8.30352 2.28242ZM15.6965 8.10595L9.69648 2.28242L8.30352 3.71758L14.3035 9.54111L15.6965 8.10595ZM13.2 9.82353H15V7.82353H13.2V9.82353ZM14.2 14V8.82353H12.2V14H14.2ZM10.2 15H13.2V13H10.2V15ZM9.2 10.1176V14H11.2V10.1176H9.2ZM7.8 11.1176H10.2V9.11765H7.8V11.1176Z" fill="black" fill-opacity="0.2" mask="url(#path-1-inside-1_5_121)"/>
</symbol>

<symbol id="icon-statistics" width="18" height="18" viewBox="0 0 18 18" fill="none" xmlns="http://www.w3.org/2000/svg">
<path fill-rule="evenodd" clip-rule="evenodd" d="M2 0C0.895431 0 0 0.89543 0 2V16C0 17.1046 0.89543 18 2 18H16C17.1046 18 18 17.1046 18 16V2C18 0.895431 17.1046 0 16 0H2ZM14.7273 7.66667C15.4273 7.66667 16 7.06667 16 6.33333C16 5.6 15.4273 5 14.7273 5C14.0273 5 13.4545 5.6 13.4545 6.33333C13.4545 6.45333 13.4673 6.56667 13.4991 6.67333L11.24 9.04667C11.1382 9.01333 11.0236 9 10.9091 9C10.7945 9 10.68 9.01333 10.5782 9.04667L8.95545 7.34667C8.98727 7.24 9 7.12 9 7C9 6.26667 8.42727 5.66667 7.72727 5.66667C7.02727 5.66667 6.45455 6.26667 6.45455 7C6.45455 7.12 6.46727 7.24 6.49909 7.34667L3.59727 10.38C3.49545 10.3467 3.38727 10.3333 3.27273 10.3333C2.57273 10.3333 2 10.9333 2 11.6667C2 12.4 2.57273 13 3.27273 13C3.97273 13 4.54545 12.4 4.54545 11.6667C4.54545 11.5467 4.53273 11.4333 4.50091 11.3267L7.39636 8.28667C7.49818 8.32 7.61273 8.33333 7.72727 8.33333C7.84182 8.33333 7.95636 8.32 8.05818 8.28667L9.68091 9.98667C9.64909 10.0933 9.63636 10.2133 9.63636 10.3333C9.63636 11.0667 10.2091 11.6667 10.9091 11.6667C11.6091 11.6667 12.1818 11.0667 12.1818 10.3333C12.1818 10.2133 12.1691 10.0933 12.1373 9.98667L14.4027 7.62C14.5045 7.65333 14.6127 7.66667 14.7273 7.66667Z" fill="#6E78E8"/>
</symbol>

<symbol id="icon-home-mobile" width="38" height="38" viewBox="0 0 38 38" fill="none" xmlns="http://www.w3.org/2000/svg">
<path fill-rule="evenodd" clip-rule="evenodd" d="M6 0C2.68629 0 0 2.68629 0 6V32C0 35.3137 2.68629 38 6 38H32C35.3137 38 38 35.3137 38 32V6C38 2.68629 35.3137 0 32 0H6ZM15.9333 21.3594V29.5555H9.1V18.6274H5L18.6667 6.33325L32.3333 18.6274H28.2333V29.5555H21.4V21.3594H15.9333Z" fill="#6E78E8"/>
</symbol>

<symbol id="icon-statistics-mobile" width="38" height="38" viewBox="0 0 38 38" fill="none" xmlns="http://www.w3.org/2000/svg">
<path fill-rule="evenodd" clip-rule="evenodd" d="M6 0C2.68629 0 0 2.68629 0 6V32C0 35.3137 2.68629 38 6 38H32C35.3137 38 38 35.3137 38 32V6C38 2.68629 35.3137 0 32 0H6ZM29.5 16.5555C30.7833 16.5555 31.8333 15.4555 31.8333 14.1111C31.8333 12.7666 30.7833 11.6666 29.5 11.6666C28.2166 11.6666 27.1666 12.7666 27.1666 14.1111C27.1666 14.3311 27.19 14.5389 27.2483 14.7344L23.1066 19.0855C22.92 19.0244 22.71 19 22.5 19C22.29 19 22.08 19.0244 21.8933 19.0855L18.9183 15.9689C18.9766 15.7733 19 15.5533 19 15.3333C19 13.9889 17.95 12.8889 16.6666 12.8889C15.3833 12.8889 14.3333 13.9889 14.3333 15.3333C14.3333 15.5533 14.3566 15.7733 14.415 15.9689L9.09498 21.53C8.90831 21.4689 8.70998 21.4444 8.49998 21.4444C7.21664 21.4444 6.16664 22.5444 6.16664 23.8889C6.16664 25.2333 7.21664 26.3333 8.49998 26.3333C9.78331 26.3333 10.8333 25.2333 10.8333 23.8889C10.8333 23.6689 10.81 23.4611 10.7516 23.2655L16.06 17.6922C16.2466 17.7533 16.4566 17.7778 16.6666 17.7778C16.8766 17.7778 17.0866 17.7533 17.2733 17.6922L20.2483 20.8089C20.19 21.0044 20.1666 21.2244 20.1666 21.4444C20.1666 22.7889 21.2166 23.8889 22.5 23.8889C23.7833 23.8889 24.8333 22.7889 24.8333 21.4444C24.8333 21.2244 24.81 21.0044 24.7516 20.8089L28.905 16.47C29.0916 16.5311 29.29 16.5555 29.5 16.5555Z" fill="#4A56E2"/>
</symbol>

<symbol id="icon-currency-mobile" width="38" height="38" viewBox="0 0 38 38" fill="none" xmlns="http://www.w3.org/2000/svg">
<path fill-rule="evenodd" clip-rule="evenodd" d="M6 0C2.68629 0 0 2.68629 0 6V32C0 35.3137 2.68629 38 6 38H32C35.3137 38 38 35.3137 38 32V6C38 2.68629 35.3137 0 32 0H6ZM15.7523 15.5989C15.7523 16.7809 16.6607 17.5399 19.4852 18.2741C22.3096 19.0082 25.3332 20.2151 25.3332 23.7489C25.3332 26.2996 23.4046 27.7056 20.9783 28.166V30.8412H17.2455V28.1411C14.8565 27.631 12.8159 26.1005 12.6666 23.3756H15.4039C15.5408 24.8438 16.5487 25.9885 19.1119 25.9885C21.8617 25.9885 22.4714 24.6198 22.4714 23.7613C22.4714 22.6041 21.8493 21.5092 18.7386 20.7626C15.2671 19.9289 12.8905 18.498 12.8905 15.6238C12.8905 13.2223 14.8316 11.6546 17.2455 11.132V8.44434H20.9783V11.1693C23.5788 11.8039 24.8853 13.7698 24.9724 15.91H22.2225C22.1479 14.3546 21.3267 13.297 19.1119 13.297C17.0091 13.297 15.7523 14.2426 15.7523 15.5989Z" fill="#6E78E8"/>
</symbol>

</defs>
</svg>